# xmcd
# Copyright (C) 1995-1998 Ti Kan
#
# Track frame offsets:
#       150
#       1465
#       16531
#       34185
#       47241
#       58427
#       72976
#       89057
#       102596
#       113629
#       131503
#       150857
#
# Disc length: 2220 seconds
#
# Revision: 0
# Processed by: cddbd v1.5.2PL0 Copyright (c) Steve Scherf et al.
# Submitted via: CD-Import v1.0
#
DISCID=9b08aa0c
DTITLE=Water Lily - Turn On Tune In Drop Out
DYEAR=2009
DGENRE=
TTITLE0=Turn On
TTITLE1=Electric Suns
TTITLE2=Cold Winds - Little Fairy
TTITLE3=What Love Is All About
TTITLE4=Little Things
TTITLE5=Not All Soldiers Are The Same
TTITLE6=Poke Your Liar
TTITLE7=Sex Sex Sex
TTITLE8=French Triad
TTITLE9=Curtains
TTITLE10=Broken Blinkers
TTITLE11=The Free Prisoner
EXTD=
EXTT0=
EXTT1=
EXTT2=
EXTT3=
EXTT4=
EXTT5=
EXTT6=
EXTT7=
EXTT8=
EXTT9=
EXTT10=
EXTT11=
PLAYORDER=
